<svg width="30" height="28" viewBox="0 0 30 28" fill="none" xmlns="http://www.w3.org/2000/svg">
<path d="M28.7672 15.0671L25.6933 11.9708V6.97211C25.6933 6.96732 25.6927 6.96266 25.6926 6.95787C25.6923 6.93784 25.6911 6.91806 25.6896 6.89828C25.6887 6.88745 25.6882 6.87661 25.6869 6.8659C25.6846 6.84613 25.6814 6.82672 25.678 6.80732C25.6761 6.79687 25.6747 6.78628 25.6725 6.77595C25.6683 6.75592 25.6628 6.73627 25.6573 6.71674C25.652 6.6981 25.6462 6.6797 25.6398 6.66144C25.6339 6.6443 25.6281 6.62717 25.6211 6.61041C25.6155 6.59668 25.6088 6.58358 25.6025 6.57022C25.5963 6.55725 25.5905 6.54415 25.5839 6.53142C25.5772 6.5187 25.5696 6.50648 25.5623 6.494C25.5548 6.48115 25.5472 6.46818 25.539 6.45571C25.5317 6.44449 25.5239 6.43366 25.5161 6.42282C25.5066 6.40972 25.4972 6.39675 25.4871 6.38402C25.4794 6.37432 25.4715 6.365 25.4634 6.35555C25.4522 6.34245 25.4406 6.32972 25.4286 6.31725C25.4206 6.30894 25.4125 6.30075 25.4042 6.29269C25.3912 6.28021 25.3779 6.26812 25.3641 6.25628C25.3557 6.24897 25.3473 6.24179 25.3386 6.23473C25.3245 6.2234 25.31 6.21281 25.2951 6.20223C25.2857 6.19555 25.2765 6.18875 25.2668 6.18245C25.2525 6.17313 25.2378 6.16443 25.223 6.15587C25.212 6.14944 25.201 6.14277 25.1897 6.13672C25.1764 6.12966 25.1627 6.12349 25.149 6.11707C25.1354 6.11064 25.122 6.10396 25.108 6.09829C25.0968 6.09363 25.0851 6.08985 25.0735 6.0857C25.0567 6.07952 25.0402 6.0731 25.0231 6.06793C25.0226 6.06781 25.0221 6.06755 25.0216 6.06743L10.4814 1.67556V1.11796C10.4814 0.596144 10.0583 0.173096 9.53648 0.173096H7.05148C6.52966 0.173096 6.10662 0.596144 6.10662 1.11796V2.10251L0.842445 6.22843C0.525222 6.47712 0.400751 6.89954 0.532277 7.28039C0.663802 7.66136 1.02247 7.91697 1.42537 7.91697H6.10649V20.3912L0.753376 25.8077C0.485537 26.0788 0.406672 26.4844 0.553568 26.8361C0.700463 27.1879 1.04439 27.4168 1.42549 27.4168H15.7433C16.1319 27.4168 16.4809 27.1788 16.6229 26.817C16.7647 26.4551 16.6707 26.0433 16.3858 25.7791L10.4815 20.3034V7.91697H23.8036V11.9688L20.7078 15.0646C20.4376 15.3348 20.3567 15.7412 20.503 16.0942C20.6493 16.4474 20.9938 16.6775 21.3759 16.6775H28.0966C28.478 16.6775 28.8222 16.4481 28.9689 16.0959C29.1155 15.7436 29.036 15.3378 28.7672 15.0671ZM4.16246 6.02724L6.10662 4.50336V6.02724H4.16246ZM6.10662 23.0796V25.5269H3.68776L6.10662 23.0796ZM13.3348 25.527H10.4814V22.8808L13.3348 25.527ZM10.4814 6.02724V3.64958L18.3528 6.02724H10.4814ZM23.6571 14.7879L24.7461 13.6989L25.8271 14.7879H23.6571Z" fill="white"/>
</svg>
