<svg width="28" height="28" viewBox="0 0 28 28" fill="none" xmlns="http://www.w3.org/2000/svg">
<path d="M26.946 25.7372H26.1478V4.07996C26.1478 3.6996 25.8789 3.37219 25.5063 3.29737L9.4895 0.104655C9.25564 0.0594253 9.01171 0.118703 8.82696 0.269879C8.64221 0.421905 8.53467 0.647949 8.53467 0.887243V11.3168H10.9292C12.2496 11.3168 13.3237 12.3909 13.3237 13.7113V27.3336H18.1128V24.0069C16.2934 23.636 14.9201 22.0239 14.9201 20.0968C14.9201 18.1785 16.4744 14.5095 18.911 14.5095C21.3476 14.5095 22.9019 18.1785 22.9019 20.0968C22.9019 22.0239 21.5285 23.636 19.7092 24.0069V27.3336H26.946C27.3872 27.3336 27.7442 26.9766 27.7442 26.5354C27.7442 26.0942 27.3872 25.7372 26.946 25.7372ZM15.7183 9.72042H12.5256C12.0844 9.72042 11.7274 9.36343 11.7274 8.92225C11.7274 8.48107 12.0844 8.12407 12.5256 8.12407H15.7183C16.1595 8.12407 16.5165 8.48107 16.5165 8.92225C16.5165 9.36343 16.1595 9.72042 15.7183 9.72042ZM15.7183 6.52771H12.5256C12.0844 6.52771 11.7274 6.17071 11.7274 5.72953C11.7274 5.28835 12.0844 4.93135 12.5256 4.93135H15.7183C16.1595 4.93135 16.5165 5.28835 16.5165 5.72953C16.5165 6.17071 16.1595 6.52771 15.7183 6.52771ZM22.1037 12.9131H18.911C18.4698 12.9131 18.1128 12.5561 18.1128 12.115C18.1128 11.6738 18.4698 11.3168 18.911 11.3168H22.1037C22.5449 11.3168 22.9019 11.6738 22.9019 12.115C22.9019 12.5561 22.5449 12.9131 22.1037 12.9131ZM22.1037 9.72042H18.911C18.4698 9.72042 18.1128 9.36343 18.1128 8.92225C18.1128 8.48107 18.4698 8.12407 18.911 8.12407H22.1037C22.5449 8.12407 22.9019 8.48107 22.9019 8.92225C22.9019 9.36343 22.5449 9.72042 22.1037 9.72042Z" fill="white"/>
<path d="M21.3067 20.0969C21.3067 18.5208 20.0221 16.106 18.9121 16.106C17.8022 16.106 16.5176 18.5208 16.5176 20.0969C16.5176 21.4173 17.5917 22.4914 18.9121 22.4914C20.2325 22.4914 21.3067 21.4173 21.3067 20.0969Z" fill="white"/>
<path d="M10.9295 12.913H5.28908V7.32577C5.28908 6.88459 4.93208 6.52759 4.4909 6.52759C4.04972 6.52759 3.69272 6.88459 3.69272 7.32577V12.913H2.89454C2.45373 12.913 2.09636 13.2703 2.09636 13.7112V25.7371H1.29818C0.857371 25.7371 0.5 26.0944 0.5 26.5353C0.5 26.9761 0.857371 27.3335 1.29818 27.3335H11.7277V13.7112C11.7277 13.2703 11.3703 12.913 10.9295 12.913ZM8.535 24.0875H5.28908C4.84789 24.0875 4.4909 23.7305 4.4909 23.2894C4.4909 22.8482 4.84789 22.4912 5.28908 22.4912H8.535C8.97618 22.4912 9.33318 22.8482 9.33318 23.2894C9.33318 23.7305 8.97618 24.0875 8.535 24.0875ZM8.535 20.8948H5.28908C4.84789 20.8948 4.4909 20.5378 4.4909 20.0966C4.4909 19.6555 4.84789 19.2985 5.28908 19.2985H8.535C8.97618 19.2985 9.33318 19.6555 9.33318 20.0966C9.33318 20.5378 8.97618 20.8948 8.535 20.8948ZM8.535 17.7021H5.28908C4.84789 17.7021 4.4909 17.3451 4.4909 16.9039C4.4909 16.4627 4.84789 16.1057 5.28908 16.1057H8.535C8.97618 16.1057 9.33318 16.4627 9.33318 16.9039C9.33318 17.3451 8.97618 17.7021 8.535 17.7021Z" fill="white"/>
</svg>
